<svg xmlns="http://www.w3.org/2000/svg" width="24" height="24" viewBox="0 0 24 24">
    <g fill="none" fill-rule="evenodd">
        <g fill="#FFF" fill-rule="nonzero">
            <g>
                <g>
                    <path d="M15 12.5c0 .667-1 .667-1 0s1-.667 1 0M10 12.5c0 .667-1 .667-1 0s1-.667 1 0M10.024 14.648c.15.468.75 1.352 2.002 1.352 1.2 0 1.8-.885 1.95-1.352.085-.264-.064-.543-.332-.625-.265-.082-.552.062-.635.325-.002.007-.22.655-1.034.655-.734 0-.961-.593-.983-.655-.084-.263-.368-.407-.636-.325-.267.082-.417.361-.332.625z" transform="translate(-95 -583) translate(30 566) translate(65 17)"/>
                    <path d="M6 7.225v6.443C6 17.16 8.916 20 12.5 20s6.5-2.84 6.5-6.332V7.225C19 5.997 17.975 5 16.715 5h-8.43C7.025 5 6 5.998 6 7.225zm11.996 6.443c0 2.954-2.465 5.355-5.496 5.355-3.031 0-5.497-2.401-5.497-5.355v-1.88c.821-.088 2.482-.41 3.713-1.61 2.037 1.028 4.49 1.56 7.279 1.62l.001 1.87zm0-6.443v3.592c-2.775-.062-5.185-.614-7.14-1.679-.21-.114-.475-.067-.63.113-.968 1.121-2.453 1.448-3.223 1.546V7.225c0-.687.575-1.247 1.28-1.247h8.432c.707 0 1.28.56 1.28 1.247h.001zM20.891 0h-4.42C16.21 0 16 .21 16 .466c0 .257.211.465.47.465h4.421c1.196 0 2.168.962 2.168 2.146v4.457c0 .258.212.466.47.466.26 0 .471-.21.471-.466V3.077C24 1.38 22.606 0 20.891 0zM.47 8c.26 0 .47-.21.47-.466V3.077C.94 1.893 1.914.931 3.11.931h4.42C7.79.931 8 .722 8 .466 8 .208 7.789 0 7.53 0H3.109C1.394 0 0 1.38 0 3.077v4.457C0 7.792.21 8 .47 8zM23.53 16c-.26 0-.47.213-.47.475v4.384c0 1.208-.973 2.19-2.169 2.19h-4.42c-.26 0-.471.214-.471.476s.211.475.47.475h4.421C22.606 24 24 22.592 24 20.859v-4.384c0-.262-.21-.475-.47-.475zM3.109 24h4.42c.26 0 .471-.213.471-.475 0-.263-.211-.475-.47-.475H3.109c-1.196 0-2.168-.983-2.168-2.191v-4.384C.94 16.213.729 16 .47 16c-.26 0-.471.213-.471.475v4.384C0 22.592 1.394 24 3.109 24z" transform="translate(-95 -583) translate(30 566) translate(65 17)"/>
                </g>
            </g>
        </g>
    </g>
</svg>
